<mxfile host="app.diagrams.net" modified="2022-01-03T08:42:10.893Z" agent="5.0 (Windows NT 10.0; Win64; x64) AppleWebKit/537.36 (KHTML, like Gecko) Chrome/96.0.4664.110 Safari/537.36" etag="aVZBNWS5pKphPIce-0Ar" version="16.1.2" type="github">
  <diagram id="prtHgNgQTEPvFCAcTncT" name="Page-1">
    <mxGraphModel dx="2005" dy="641" grid="1" gridSize="10" guides="1" tooltips="1" connect="1" arrows="1" fold="1" page="1" pageScale="1" pageWidth="827" pageHeight="1169" background="#F1FAEE" math="0" shadow="0">
      <root>
        <mxCell id="0" />
        <mxCell id="1" parent="0" />
        <mxCell id="Zy5jL_L1PlVuJN2Nwhqh-2" value="아키텍쳐 구성도" style="text;html=1;align=center;verticalAlign=middle;resizable=0;points=[];autosize=1;strokeColor=none;fillColor=none;fontColor=#1D3557;" vertex="1" parent="1">
          <mxGeometry x="305" y="10" width="100" height="20" as="geometry" />
        </mxCell>
        <mxCell id="Zy5jL_L1PlVuJN2Nwhqh-3" value="" style="shape=flexArrow;endArrow=classic;html=1;rounded=0;labelBackgroundColor=#F1FAEE;strokeColor=#457B9D;fontColor=#1D3557;" edge="1" parent="1">
          <mxGeometry width="50" height="50" relative="1" as="geometry">
            <mxPoint x="60" y="250.29" as="sourcePoint" />
            <mxPoint x="140" y="249.99999999999997" as="targetPoint" />
          </mxGeometry>
        </mxCell>
        <mxCell id="Zy5jL_L1PlVuJN2Nwhqh-5" value="Client" style="rounded=1;whiteSpace=wrap;html=1;fillColor=#A8DADC;strokeColor=#457B9D;fontColor=#1D3557;" vertex="1" parent="1">
          <mxGeometry x="-20" y="230" width="60" height="80" as="geometry" />
        </mxCell>
        <mxCell id="Zy5jL_L1PlVuJN2Nwhqh-6" value="Spring Cloud Gateway&lt;br&gt;+ Spring Security&lt;br&gt;주소 매핑,&lt;br&gt;predicates (필터 역할)" style="rounded=1;whiteSpace=wrap;html=1;fillColor=#A8DADC;strokeColor=#457B9D;fontColor=#1D3557;" vertex="1" parent="1">
          <mxGeometry x="160" y="210" width="140" height="100" as="geometry" />
        </mxCell>
        <mxCell id="Zy5jL_L1PlVuJN2Nwhqh-8" value="" style="shape=flexArrow;endArrow=classic;html=1;rounded=0;labelBackgroundColor=#F1FAEE;strokeColor=#457B9D;fontColor=#1D3557;" edge="1" parent="1">
          <mxGeometry width="50" height="50" relative="1" as="geometry">
            <mxPoint x="320" y="250" as="sourcePoint" />
            <mxPoint x="490" y="250" as="targetPoint" />
          </mxGeometry>
        </mxCell>
        <mxCell id="Zy5jL_L1PlVuJN2Nwhqh-9" value="특정 서비스로 라우팅" style="text;html=1;align=center;verticalAlign=middle;resizable=0;points=[];autosize=1;strokeColor=none;fillColor=none;fontColor=#1D3557;" vertex="1" parent="1">
          <mxGeometry x="335" y="220" width="130" height="20" as="geometry" />
        </mxCell>
        <mxCell id="Zy5jL_L1PlVuJN2Nwhqh-10" value="Eureka Server&lt;br&gt;(서비스 관리 및 로드밸런싱)" style="rounded=1;whiteSpace=wrap;html=1;fillColor=#A8DADC;strokeColor=#457B9D;fontColor=#1D3557;" vertex="1" parent="1">
          <mxGeometry x="260" y="430" width="280" height="110" as="geometry" />
        </mxCell>
        <mxCell id="Zy5jL_L1PlVuJN2Nwhqh-11" value="1. 프론트단 (클라이언트)이 요청" style="text;html=1;align=center;verticalAlign=middle;resizable=0;points=[];autosize=1;strokeColor=none;fillColor=none;fontColor=#1D3557;" vertex="1" parent="1">
          <mxGeometry x="-70" y="200" width="190" height="20" as="geometry" />
        </mxCell>
        <mxCell id="Zy5jL_L1PlVuJN2Nwhqh-12" value="2. 요청 검증(Predicates)" style="text;html=1;align=center;verticalAlign=middle;resizable=0;points=[];autosize=1;strokeColor=none;fillColor=none;fontColor=#1D3557;" vertex="1" parent="1">
          <mxGeometry x="160" y="170" width="140" height="20" as="geometry" />
        </mxCell>
        <mxCell id="Zy5jL_L1PlVuJN2Nwhqh-13" value="" style="curved=1;endArrow=classic;html=1;rounded=0;entryX=-0.012;entryY=0.222;entryDx=0;entryDy=0;entryPerimeter=0;exitX=0.536;exitY=1.01;exitDx=0;exitDy=0;exitPerimeter=0;labelBackgroundColor=#F1FAEE;strokeColor=#457B9D;fontColor=#1D3557;" edge="1" parent="1" source="Zy5jL_L1PlVuJN2Nwhqh-6" target="Zy5jL_L1PlVuJN2Nwhqh-10">
          <mxGeometry width="50" height="50" relative="1" as="geometry">
            <mxPoint x="10" y="300" as="sourcePoint" />
            <mxPoint x="120" y="420" as="targetPoint" />
            <Array as="points">
              <mxPoint x="270" y="390" />
              <mxPoint x="210" y="370" />
            </Array>
          </mxGeometry>
        </mxCell>
        <mxCell id="Zy5jL_L1PlVuJN2Nwhqh-14" value="3. 서비스 탐색" style="text;html=1;strokeColor=none;fillColor=none;align=center;verticalAlign=middle;whiteSpace=wrap;rounded=0;fontColor=#1D3557;" vertex="1" parent="1">
          <mxGeometry x="110" y="380" width="110" height="30" as="geometry" />
        </mxCell>
        <mxCell id="Zy5jL_L1PlVuJN2Nwhqh-15" value="대시보드 서비스" style="rounded=1;whiteSpace=wrap;html=1;fillColor=#A8DADC;strokeColor=#457B9D;fontColor=#1D3557;" vertex="1" parent="1">
          <mxGeometry x="510" y="100" width="120" height="60" as="geometry" />
        </mxCell>
        <mxCell id="Zy5jL_L1PlVuJN2Nwhqh-16" value="데이터 서비스" style="rounded=1;whiteSpace=wrap;html=1;fillColor=#A8DADC;strokeColor=#457B9D;fontColor=#1D3557;" vertex="1" parent="1">
          <mxGeometry x="510" y="230" width="120" height="60" as="geometry" />
        </mxCell>
        <mxCell id="Zy5jL_L1PlVuJN2Nwhqh-17" value="공용 서비스" style="rounded=1;whiteSpace=wrap;html=1;fillColor=#A8DADC;strokeColor=#457B9D;fontColor=#1D3557;" vertex="1" parent="1">
          <mxGeometry x="510" y="350" width="120" height="60" as="geometry" />
        </mxCell>
        <mxCell id="Zy5jL_L1PlVuJN2Nwhqh-18" value="" style="curved=1;endArrow=classic;html=1;rounded=0;exitX=0;exitY=0.5;exitDx=0;exitDy=0;entryX=0.543;entryY=-0.022;entryDx=0;entryDy=0;entryPerimeter=0;labelBackgroundColor=#F1FAEE;strokeColor=#457B9D;fontColor=#1D3557;" edge="1" parent="1" source="Zy5jL_L1PlVuJN2Nwhqh-17" target="Zy5jL_L1PlVuJN2Nwhqh-10">
          <mxGeometry width="50" height="50" relative="1" as="geometry">
            <mxPoint x="490" y="400" as="sourcePoint" />
            <mxPoint x="540" y="350" as="targetPoint" />
            <Array as="points">
              <mxPoint x="470" y="410" />
              <mxPoint x="450" y="350" />
            </Array>
          </mxGeometry>
        </mxCell>
        <mxCell id="Zy5jL_L1PlVuJN2Nwhqh-20" value="Eureka Client &amp;amp; Service" style="text;html=1;align=center;verticalAlign=middle;resizable=0;points=[];autosize=1;strokeColor=none;fillColor=none;fontColor=#1D3557;" vertex="1" parent="1">
          <mxGeometry x="500" y="320" width="140" height="20" as="geometry" />
        </mxCell>
        <mxCell id="Zy5jL_L1PlVuJN2Nwhqh-21" value="Eureka Client &amp;amp; Service" style="text;html=1;align=center;verticalAlign=middle;resizable=0;points=[];autosize=1;strokeColor=none;fillColor=none;fontColor=#1D3557;" vertex="1" parent="1">
          <mxGeometry x="500" y="200" width="140" height="20" as="geometry" />
        </mxCell>
        <mxCell id="Zy5jL_L1PlVuJN2Nwhqh-22" value="Eureka Client &amp;amp; Service" style="text;html=1;align=center;verticalAlign=middle;resizable=0;points=[];autosize=1;strokeColor=none;fillColor=none;fontColor=#1D3557;" vertex="1" parent="1">
          <mxGeometry x="500" y="70" width="140" height="20" as="geometry" />
        </mxCell>
        <mxCell id="Zy5jL_L1PlVuJN2Nwhqh-27" value="" style="curved=1;endArrow=classic;html=1;rounded=0;entryX=0.5;entryY=0;entryDx=0;entryDy=0;exitX=0;exitY=0.5;exitDx=0;exitDy=0;labelBackgroundColor=#F1FAEE;strokeColor=#457B9D;fontColor=#1D3557;" edge="1" parent="1" source="Zy5jL_L1PlVuJN2Nwhqh-16" target="Zy5jL_L1PlVuJN2Nwhqh-10">
          <mxGeometry width="50" height="50" relative="1" as="geometry">
            <mxPoint x="350" y="390" as="sourcePoint" />
            <mxPoint x="400" y="340" as="targetPoint" />
            <Array as="points">
              <mxPoint x="480" y="350" />
              <mxPoint x="410" y="340" />
            </Array>
          </mxGeometry>
        </mxCell>
        <mxCell id="Zy5jL_L1PlVuJN2Nwhqh-28" value="" style="curved=1;endArrow=classic;html=1;rounded=0;entryX=1;entryY=0.5;entryDx=0;entryDy=0;exitX=0.999;exitY=0.421;exitDx=0;exitDy=0;exitPerimeter=0;labelBackgroundColor=#F1FAEE;strokeColor=#457B9D;fontColor=#1D3557;" edge="1" parent="1" source="Zy5jL_L1PlVuJN2Nwhqh-15" target="Zy5jL_L1PlVuJN2Nwhqh-10">
          <mxGeometry width="50" height="50" relative="1" as="geometry">
            <mxPoint x="690" y="460" as="sourcePoint" />
            <mxPoint x="700" y="350" as="targetPoint" />
            <Array as="points">
              <mxPoint x="750" y="320" />
              <mxPoint x="670" y="480" />
            </Array>
          </mxGeometry>
        </mxCell>
        <mxCell id="Zy5jL_L1PlVuJN2Nwhqh-29" value="" style="shape=flexArrow;endArrow=classic;html=1;rounded=0;labelBackgroundColor=#F1FAEE;strokeColor=#457B9D;fontColor=#1D3557;" edge="1" parent="1">
          <mxGeometry width="50" height="50" relative="1" as="geometry">
            <mxPoint x="480" y="290" as="sourcePoint" />
            <mxPoint x="320" y="290" as="targetPoint" />
          </mxGeometry>
        </mxCell>
        <mxCell id="Zy5jL_L1PlVuJN2Nwhqh-30" value="서비스에서 응답" style="text;html=1;align=center;verticalAlign=middle;resizable=0;points=[];autosize=1;strokeColor=none;fillColor=none;fontColor=#1D3557;" vertex="1" parent="1">
          <mxGeometry x="350" y="310" width="100" height="20" as="geometry" />
        </mxCell>
        <mxCell id="Zy5jL_L1PlVuJN2Nwhqh-31" value="응답 받음" style="text;html=1;strokeColor=none;fillColor=none;align=center;verticalAlign=middle;whiteSpace=wrap;rounded=0;fontColor=#1D3557;" vertex="1" parent="1">
          <mxGeometry x="60" y="305" width="60" height="30" as="geometry" />
        </mxCell>
        <mxCell id="Zy5jL_L1PlVuJN2Nwhqh-32" value="" style="shape=flexArrow;endArrow=classic;html=1;rounded=0;labelBackgroundColor=#F1FAEE;strokeColor=#457B9D;fontColor=#1D3557;" edge="1" parent="1">
          <mxGeometry width="50" height="50" relative="1" as="geometry">
            <mxPoint x="140" y="285" as="sourcePoint" />
            <mxPoint x="60" y="285" as="targetPoint" />
          </mxGeometry>
        </mxCell>
        <mxCell id="Zy5jL_L1PlVuJN2Nwhqh-33" value="Vue.js&lt;br&gt;(Vue2)" style="text;html=1;strokeColor=none;fillColor=none;align=center;verticalAlign=middle;whiteSpace=wrap;rounded=0;fontColor=#1D3557;" vertex="1" parent="1">
          <mxGeometry x="-20" y="320" width="60" height="30" as="geometry" />
        </mxCell>
        <mxCell id="Zy5jL_L1PlVuJN2Nwhqh-34" value="Spring Boot(Java 15)" style="text;html=1;strokeColor=none;fillColor=none;align=center;verticalAlign=middle;whiteSpace=wrap;rounded=0;fontColor=#1D3557;" vertex="1" parent="1">
          <mxGeometry x="280" y="90" width="170" height="30" as="geometry" />
        </mxCell>
      </root>
    </mxGraphModel>
  </diagram>
</mxfile>
